<svg id="svg" version="1.1" xmlns="http://www.w3.org/2000/svg" viewBox="0 0 400 400" style="display: block;"><path d="M0 0 C132 0 264 0 400 0 C400 132 400 264 400 400 C268 400 136 400 0 400 C0 268 0 136 0 0 Z " transform="translate(0,0)" style="fill: #5D2D91;"/><path d="M0 0 C2.93640136 1.63915344 5.15943832 3.86838301 7.49783516 6.24431133 C8.04028177 6.7834891 8.58272838 7.32266687 9.14161277 7.87818336 C10.96057672 9.68985425 12.76860272 11.51206187 14.57687569 13.33439922 C15.87730494 14.6340378 17.17838713 15.93302334 18.48007393 17.2314024 C22.01550275 20.76169123 25.54151277 24.30125357 29.06580257 27.84265804 C32.74963004 31.54149934 36.4415396 35.23225647 40.13247871 38.92399883 C46.32796089 45.12317494 52.5177745 51.32796428 58.70382881 57.53654766 C66.65566872 65.51728748 74.61677368 73.48871774 82.58084679 81.45724773 C89.41524719 88.2956215 96.24537874 95.13825436 103.07482624 101.98157406 C105.27679198 104.18764623 107.47934987 106.39312591 109.68198586 108.59852886 C113.13505436 112.05647577 116.58545913 115.51705914 120.03376961 118.97975063 C121.30359908 120.25411828 122.57428595 121.52763221 123.84586525 122.80025387 C125.57333733 124.52946061 127.29771541 126.26169213 129.02127266 127.99479961 C129.53214936 128.50480983 130.04302605 129.01482004 130.56938386 129.54028511 C134.00558662 133.00534805 134.00558662 133.00534805 134.00558662 134.11955547 C116.64317647 137.34228999 95.50071503 140.59611362 79.86203194 130.59221172 C66.48936659 120.81219657 55.25655023 108.12002615 44.24544716 95.81669331 C39.49522278 90.51972462 34.59870601 85.3670621 29.68889809 80.2184 C19.63208312 69.66602332 9.75830829 58.95384774 0.00558662 48.11955547 C-5.26208024 52.45172306 -9.84758066 57.06347876 -14.3869915 62.14445782 C-21.63175018 70.16263855 -28.99074385 78.06292898 -36.42627525 85.90445805 C-40.90305348 90.63598462 -45.32707094 95.3998283 -49.65359306 100.26945782 C-80.48352902 134.86158266 -80.48352902 134.86158266 -100.13503838 136.59318829 C-111.51374261 137.19296356 -122.7896349 136.05518762 -133.99441338 134.11955547 C-132.40911981 130.23679246 -129.76815413 127.60494721 -126.84551811 124.69650555 C-126.31576972 124.16152047 -125.78602133 123.6265354 -125.24021995 123.07533866 C-123.46398122 121.28409866 -121.6806655 119.50007904 -119.89724541 117.71599102 C-118.62227409 116.43339863 -117.34770709 115.15040423 -116.07351494 113.86703777 C-112.61153462 110.38310806 -109.14299884 106.90577784 -105.67256975 103.43026614 C-103.50628158 101.26033675 -101.34129792 99.08911442 -99.17675209 96.91744709 C-91.63031854 89.34652331 -84.07818529 81.78133355 -76.52126884 74.22087383 C-69.46798704 67.16395094 -62.4279619 60.09398813 -55.39380562 53.01800603 C-49.35927617 46.94885084 -43.3152283 40.88928623 -37.26371086 34.83706981 C-33.64705083 31.21961473 -30.03452618 27.59824531 -26.43167305 23.96703434 C-23.04616815 20.55547922 -19.64904568 17.15594811 -16.24244499 13.76546192 C-14.99161756 12.51645905 -13.74508635 11.26313724 -12.50312233 10.00532055 C-10.81242939 8.29436353 -9.10720887 6.599383 -7.39727592 4.90768719 C-6.65806441 4.14867573 -6.65806441 4.14867573 -5.90391934 3.3743307 C-2.60547079 0.15618542 -2.60547079 0.15618542 0 0 Z " transform="translate(200.9944133758545,225.88044452667236)" style="fill: #FCFCFD;"/><path d="M0 0 C15.84 0 31.68 0 48 0 C48 0.66 48 1.32 48 2 C49.32 2.66 50.64 3.32 52 4 C52 4.66 52 5.32 52 6 C53.32 6.66 54.64 7.32 56 8 C56 8.66 56 9.32 56 10 C57.32 10.66 58.64 11.32 60 12 C60 12.66 60 13.32 60 14 C61.32 14.66 62.64 15.32 64 16 C64 16.66 64 17.32 64 18 C65.32 18.66 66.64 19.32 68 20 C68 20.66 68 21.32 68 22 C69.32 22.66 70.64 23.32 72 24 C72 24.66 72 25.32 72 26 C72.59745529 26.26007339 73.19491058 26.52014679 73.81047058 26.7881012 C76.16676391 28.09230339 77.34004298 29.31336862 79.0324707 31.39038086 C83.89192581 37.12461362 89.19384267 42.41819741 94.48046875 47.75390625 C95.02068476 48.29944593 95.56090076 48.84498562 96.11748695 49.40705681 C98.96537681 52.28144721 101.81677366 55.1523103 104.6706543 58.02075195 C107.02763536 60.39117666 109.37709057 62.76870621 111.72045898 65.15258789 C114.56395979 68.04521513 117.41936347 70.92555254 120.28396034 73.79728508 C121.3706943 74.89074476 122.45315849 75.98846507 123.53124046 77.09045601 C125.03177612 78.6224156 126.54710939 80.13805055 128.06713867 81.65063477 C128.92538742 82.51697037 129.78363617 83.38330597 130.66789246 84.27589417 C132.77739386 86.23834785 132.77739386 86.23834785 134.9191761 85.81136894 C137.41919601 84.83654425 138.73109065 83.64097793 140.62528992 81.74220276 C141.3277182 81.04534363 142.03014648 80.3484845 142.75386047 79.63050842 C143.51401962 78.86113449 144.27417877 78.09176056 145.05737305 77.29907227 C145.86589722 76.49259247 146.67442139 75.68611267 147.50744629 74.85519409 C150.18285317 72.18279972 152.84735254 69.49980474 155.51171875 66.81640625 C157.36390402 64.96116432 159.21667978 63.10651173 161.07002258 61.25242615 C164.95447327 57.36428393 168.83324406 53.47055019 172.70825195 49.57299805 C177.68485669 44.56749961 182.6707069 39.57131773 187.65954876 34.57801914 C191.4854975 30.74852024 195.30800739 26.91559844 199.12977028 23.08192253 C200.96779111 21.23818966 202.80629097 19.3949342 204.64526939 17.55215645 C207.20975674 14.98082322 209.77082216 12.40613365 212.33081055 9.83032227 C213.09704239 9.06297256 213.86327423 8.29562286 214.65272522 7.50502014 C215.34669403 6.80534119 216.04066284 6.10566223 216.75566101 5.38478088 C217.36161448 4.77585275 217.96756796 4.16692461 218.59188366 3.53954411 C220.09601381 2.03601972 220.09601381 2.03601972 221 0 C236.84 0 252.68 0 269 0 C265.22124162 4.40855145 261.51660661 8.6284841 257.4190979 12.70115662 C256.89127665 13.22983229 256.3634554 13.75850797 255.81963956 14.30320412 C254.07173531 16.05273963 252.32031065 17.79870547 250.56884766 19.54467773 C249.30667999 20.80656299 248.04473314 22.06866916 246.7829895 23.33097839 C243.37246548 26.7417883 239.9588759 30.14951493 236.54471254 33.55668139 C232.9714835 37.12364211 229.40110252 40.69345133 225.83041382 44.26295471 C219.07525184 51.01501362 212.31754568 57.76452022 205.55891359 64.51310545 C197.86165665 72.19916942 190.16725268 79.88808676 182.47308278 87.57724082 C166.65188627 103.38799614 150.82712418 119.19517866 135 135 C128.12113063 129.36588391 121.93563332 123.06188712 115.6706543 116.76831055 C114.43172669 115.52746144 113.19256949 114.28684154 111.95320129 113.0464325 C109.29613846 110.38622081 106.64063416 107.72446669 103.98633385 105.06149864 C99.7915646 100.85316879 95.59294937 96.64869019 91.39375305 92.44477844 C82.48869963 83.52864758 73.5878941 74.60828159 64.6875 65.6875 C55.06098665 56.03896695 45.43374497 46.39116729 35.80163699 36.74821883 C31.62435002 32.56594062 27.44951525 28.38123426 23.27652109 24.19467294 C20.68748587 21.59820152 18.09640132 19.00378278 15.50474358 16.40992928 C14.30011355 15.20342065 13.09635151 13.99604471 11.8935051 12.78775787 C10.2569024 11.14398368 8.61728289 9.5032799 6.97685242 7.86332703 C5.5995044 6.48264809 5.5995044 6.48264809 4.19433117 5.07407665 C2.17926826 2.96905682 2.17926826 2.96905682 0 2 C0 1.34 0 0.68 0 0 Z " transform="translate(66,67)" style="fill: #FDFDFE;"/><path d="M0 0 C7.06548327 4.47349034 12.34228083 9.62315488 14.84765625 17.765625 C15.66370737 26.13014894 15.21982716 33.64486864 10.43359375 40.82421875 C4.68892443 47.79334946 -2.16914243 51.50124063 -11.12890625 52.6015625 C-19.03141044 52.93619623 -24.89716347 50.71300011 -30.9453125 45.6015625 C-36.88073078 39.45100113 -39.95698875 31.77887847 -40.46484375 23.265625 C-40.05864994 15.25599084 -36.28105459 9.27059052 -30.52734375 3.890625 C-21.46411419 -3.47603942 -10.67090377 -5.50006655 0 0 Z " transform="translate(212.90234375,42.671875)" style="fill: #FDFCFD;"/><path d="M0 0 C0.33 0.99 0.66 1.98 1 3 C-2.61992246 6.6941012 -6.24960581 10.37822232 -9.88867188 14.0534668 C-11.1251278 15.30500541 -12.35887732 16.55922385 -13.58984375 17.81616211 C-15.36012675 19.62285013 -17.13993219 21.41966403 -18.921875 23.21484375 C-19.46994812 23.77840073 -20.01802124 24.3419577 -20.58270264 24.92259216 C-23.32374634 27.66482974 -25.19120851 29.28161822 -29 30 C-23.47349666 23.25919575 -17.30550441 17.1928871 -11.125 11.0625 C-10.04403726 9.98656273 -8.96330617 8.91039269 -7.8828125 7.83398438 C-5.25787359 5.21996708 -2.62981372 2.60911404 0 0 Z " transform="translate(259,143)" style="fill: #66449C;"/><path d="M0 0 C0.99 0.33 1.98 0.66 3 1 C0.42081872 3.60830685 -2.16405697 6.21089814 -4.75 8.8125 C-5.47960937 9.55048828 -6.20921875 10.28847656 -6.9609375 11.04882812 C-7.66992188 11.76103516 -8.37890625 12.47324219 -9.109375 13.20703125 C-9.75874023 13.8616333 -10.40810547 14.51623535 -11.07714844 15.19067383 C-12.95794506 16.96042799 -14.90470134 18.49374931 -17 20 C-17.66 19.67 -18.32 19.34 -19 19 C-12.73 12.73 -6.46 6.46 0 0 Z " transform="translate(226,176)" style="fill: #67469D;"/><path d="M0 0 C0.66 0 1.32 0 2 0 C0.50902342 3.7952131 -1.75700849 5.61042731 -5 8 C-4.67 6.68 -4.34 5.36 -4 4 C-3.34 4 -2.68 4 -2 4 C-2 3.34 -2 2.68 -2 2 C-1.34 2 -0.68 2 0 2 C0 1.34 0 0.68 0 0 Z " transform="translate(245,107)" style="fill: #6E4FA1;"/></svg>