<?xml version="1.0" standalone="no"?>
<!DOCTYPE svg PUBLIC "-//W3C//DTD SVG 20010904//EN"
 "http://www.w3.org/TR/2001/REC-SVG-20010904/DTD/svg10.dtd">
<svg version="1.0" xmlns="http://www.w3.org/2000/svg"
 width="400.000000pt" height="400.000000pt" viewBox="0 0 400.000000 400.000000"
 preserveAspectRatio="xMidYMid meet">
<metadata>
Created by potrace 1.16, written by Peter Selinger 2001-2019
</metadata>
<g transform="translate(0.000000,400.000000) scale(0.100000,-0.100000)"
fill="#000000" stroke="none">
<path d="M0 2000 l0 -2000 2000 0 2000 0 0 2000 0 2000 -2000 0 -2000 0 0
-2000z m2126 1572 c52 -27 98 -72 127 -126 29 -55 31 -184 3 -236 -25 -49 -84
-108 -131 -133 -57 -31 -183 -31 -241 0 -98 52 -162 170 -151 279 11 106 90
200 197 235 43 14 152 4 196 -19z m-556 -677 l435 -435 435 435 435 435 238
-2 237 -3 -672 -673 -673 -672 -675 675 -675 675 240 0 240 0 435 -435z m1543
-2493 l-238 -2 -435 435 -435 435 -435 -435 -435 -435 -240 0 -240 0 675 675
675 675 673 -672 672 -673 -237 -3z"/>
</g>
</svg>
